{
	"asset":{
		"generator":"Khronos glTF Blender I/O v4.0.43",
		"version":"2.0"
	},
	"extensionsUsed":[
		"KHR_materials_specular",
		"KHR_materials_ior"
	],
	"scene":0,
	"scenes":[
		{
			"name":"Scene",
			"nodes":[
				0,
				1,
				2,
				3,
				4,
				5,
				6
			]
		}
	],
	"nodes":[
		{
			"mesh":0,
			"name":"land",
			"rotation":[
				0,
				-0.9373185038566589,
				0,
				0.3484739065170288
			],
			"translation":[
				-0.9002685546875,
				5.2345123291015625,
				4.061420440673828
			]
		},
		{
			"mesh":1,
			"name":"fountain",
			"rotation":[
				0,
				-0.6184183955192566,
				0,
				0.7858490347862244
			],
			"scale":[
				10.179487228393555,
				10.179487228393555,
				10.179487228393555
			],
			"translation":[
				-0.9002684354782104,
				5.2345123291015625,
				4.061420440673828
			]
		},
		{
			"mesh":2,
			"name":"nitap_logo",
			"translation":[
				-0.9022445678710938,
				7.300678253173828,
				4.065946102142334
			]
		},
		{
			"mesh":3,
			"name":"pillar_top_dom",
			"rotation":[
				0,
				0.41998791694641113,
				0,
				0.9075297117233276
			],
			"scale":[
				0.5089744329452515,
				0.08317885547876358,
				0.5089744329452515
			],
			"translation":[
				-0.9002687931060791,
				5.234511852264404,
				4.061419486999512
			]
		},
		{
			"name":"usless reference line",
			"rotation":[
				0,
				-0.6184181571006775,
				0,
				0.7858492136001587
			],
			"scale":[
				21.906890869140625,
				22.14832305908203,
				21.906890869140625
			],
			"translation":[
				-0.3427107334136963,
				9.737828254699707,
				0.7547979354858398
			]
		},
		{
			"mesh":4,
			"name":"NITAP_name",
			"rotation":[
				0.5556792616844177,
				-0.4372878074645996,
				0.43728792667388916,
				0.5556791424751282
			],
			"scale":[
				1,
				1,
				1.5509024858474731
			],
			"translation":[
				-0.9002683162689209,
				5.234512805938721,
				4.061420440673828
			]
		},
		{
			"mesh":5,
			"name":"pillars",
			"rotation":[
				0.8289231061935425,
				0,
				0.559362530708313,
				0
			],
			"scale":[
				1.0818113088607788,
				1.1683166027069092,
				1.0818113088607788
			],
			"translation":[
				-0.9002685546875,
				5.2345123291015625,
				4.06141996383667
			]
		}
	],
	"materials":[
		{
			"doubleSided":true,
			"name":"land",
			"pbrMetallicRoughness":{
				"baseColorFactor":[
					1,
					0.798755407333374,
					0.6333763599395752,
					1
				],
				"metallicFactor":0.4872727394104004
			}
		},
		{
			"doubleSided":true,
			"name":"Material.001",
			"pbrMetallicRoughness":{
				"baseColorTexture":{
					"index":0
				},
				"metallicFactor":0.3927272856235504,
				"roughnessFactor":0.11454546451568604
			}
		},
		{
			"doubleSided":true,
			"extensions":{
				"KHR_materials_specular":{
					"specularFactor":0
				},
				"KHR_materials_ior":{
					"ior":1.4499999284744263
				}
			},
			"name":"Material.004",
			"pbrMetallicRoughness":{
				"baseColorTexture":{
					"index":1
				},
				"metallicFactor":0.1563636064529419,
				"roughnessFactor":0.5
			}
		},
		{
			"doubleSided":true,
			"extensions":{
				"KHR_materials_specular":{
					"specularFactor":0.9272727370262146
				},
				"KHR_materials_ior":{
					"ior":1.4500000476837158
				}
			},
			"name":"pillar",
			"pbrMetallicRoughness":{
				"baseColorFactor":[
					0.8000000715255737,
					0.41838568449020386,
					0.17754442989826202,
					1
				],
				"metallicFactor":0.8836363554000854,
				"roughnessFactor":0.5581817626953125
			}
		}
	],
	"meshes":[
		{
			"name":"Cylinder",
			"primitives":[
				{
					"attributes":{
						"POSITION":0,
						"NORMAL":1,
						"TEXCOORD_0":2
					},
					"indices":3,
					"material":0
				}
			]
		},
		{
			"name":"Cylinder.002",
			"primitives":[
				{
					"attributes":{
						"POSITION":4,
						"NORMAL":5,
						"TEXCOORD_0":6
					},
					"indices":7,
					"material":1
				}
			]
		},
		{
			"name":"Plane",
			"primitives":[
				{
					"attributes":{
						"POSITION":8,
						"NORMAL":9,
						"TEXCOORD_0":10
					},
					"indices":11,
					"material":2
				}
			]
		},
		{
			"name":"Cube",
			"primitives":[
				{
					"attributes":{
						"POSITION":12,
						"NORMAL":13,
						"TEXCOORD_0":14
					},
					"indices":15,
					"material":3
				}
			]
		},
		{
			"name":"Text",
			"primitives":[
				{
					"attributes":{
						"POSITION":16,
						"NORMAL":17,
						"TEXCOORD_0":18
					},
					"indices":19,
					"material":3
				}
			]
		},
		{
			"name":"Cylinder.003",
			"primitives":[
				{
					"attributes":{
						"POSITION":20,
						"NORMAL":21,
						"TEXCOORD_0":22
					},
					"indices":23,
					"material":3
				}
			]
		}
	],
	"textures":[
		{
			"sampler":0,
			"source":0
		},
		{
			"sampler":0,
			"source":1
		}
	],
	"images":[
		{
			"mimeType":"image/png",
			"name":"fountain_texture",
			"uri":"fountain_texture.png"
		},
		{
			"mimeType":"image/png",
			"name":"nit-logo",
			"uri":"nit-logo.png"
		}
	],
	"accessors":[
		{
			"bufferView":0,
			"componentType":5126,
			"count":1971,
			"max":[
				23.823516845703125,
				-0.2859959602355957,
				27.337345123291016
			],
			"min":[
				-26.846115112304688,
				-18.718185424804688,
				-22.247596740722656
			],
			"type":"VEC3"
		},
		{
			"bufferView":1,
			"componentType":5126,
			"count":1971,
			"type":"VEC3"
		},
		{
			"bufferView":2,
			"componentType":5126,
			"count":1971,
			"type":"VEC2"
		},
		{
			"bufferView":3,
			"componentType":5123,
			"count":10686,
			"type":"SCALAR"
		},
		{
			"bufferView":4,
			"componentType":5126,
			"count":608,
			"max":[
				0.41782769560813904,
				0.09825728833675385,
				0.41782769560813904
			],
			"min":[
				-0.41782769560813904,
				-0.06000000238418579,
				-0.41782769560813904
			],
			"type":"VEC3"
		},
		{
			"bufferView":5,
			"componentType":5126,
			"count":608,
			"type":"VEC3"
		},
		{
			"bufferView":6,
			"componentType":5126,
			"count":608,
			"type":"VEC2"
		},
		{
			"bufferView":7,
			"componentType":5123,
			"count":1812,
			"type":"SCALAR"
		},
		{
			"bufferView":8,
			"componentType":5126,
			"count":3061,
			"max":[
				0.5119415521621704,
				1.2564210891723633,
				1.1903367042541504
			],
			"min":[
				-0.5119407176971436,
				-1.2564125061035156,
				-1.1903438568115234
			],
			"type":"VEC3"
		},
		{
			"bufferView":9,
			"componentType":5126,
			"count":3061,
			"type":"VEC3"
		},
		{
			"bufferView":10,
			"componentType":5126,
			"count":3061,
			"type":"VEC2"
		},
		{
			"bufferView":11,
			"componentType":5123,
			"count":7764,
			"type":"SCALAR"
		},
		{
			"bufferView":12,
			"componentType":5126,
			"count":5496,
			"max":[
				43.3524169921875,
				79.3172378540039,
				35.357818603515625
			],
			"min":[
				-30.107357025146484,
				-10.444576263427734,
				-41.07086944580078
			],
			"type":"VEC3"
		},
		{
			"bufferView":13,
			"componentType":5126,
			"count":5496,
			"type":"VEC3"
		},
		{
			"bufferView":14,
			"componentType":5126,
			"count":5496,
			"type":"VEC2"
		},
		{
			"bufferView":15,
			"componentType":5123,
			"count":8244,
			"type":"SCALAR"
		},
		{
			"bufferView":16,
			"componentType":5126,
			"count":11341,
			"max":[
				-17.327062606811523,
				6.10003662109375,
				-4.374454021453857
			],
			"min":[
				-22.01247215270996,
				-13.411952018737793,
				-4.771354675292969
			],
			"type":"VEC3"
		},
		{
			"bufferView":17,
			"componentType":5126,
			"count":11341,
			"type":"VEC3"
		},
		{
			"bufferView":18,
			"componentType":5126,
			"count":11341,
			"type":"VEC2"
		},
		{
			"bufferView":19,
			"componentType":5123,
			"count":18012,
			"type":"SCALAR"
		},
		{
			"bufferView":20,
			"componentType":5126,
			"count":2017022,
			"max":[
				11.49213695526123,
				0.62856525182724,
				19.28234100341797
			],
			"min":[
				-20.23270606994629,
				-5.301642894744873,
				-16.603195190429688
			],
			"type":"VEC3"
		},
		{
			"bufferView":21,
			"componentType":5126,
			"count":2017022,
			"type":"VEC3"
		},
		{
			"bufferView":22,
			"componentType":5126,
			"count":2017022,
			"type":"VEC2"
		},
		{
			"bufferView":23,
			"componentType":5125,
			"count":4706322,
			"type":"SCALAR"
		}
	],
	"bufferViews":[
		{
			"buffer":0,
			"byteLength":23652,
			"byteOffset":0,
			"target":34962
		},
		{
			"buffer":0,
			"byteLength":23652,
			"byteOffset":23652,
			"target":34962
		},
		{
			"buffer":0,
			"byteLength":15768,
			"byteOffset":47304,
			"target":34962
		},
		{
			"buffer":0,
			"byteLength":21372,
			"byteOffset":63072,
			"target":34963
		},
		{
			"buffer":0,
			"byteLength":7296,
			"byteOffset":84444,
			"target":34962
		},
		{
			"buffer":0,
			"byteLength":7296,
			"byteOffset":91740,
			"target":34962
		},
		{
			"buffer":0,
			"byteLength":4864,
			"byteOffset":99036,
			"target":34962
		},
		{
			"buffer":0,
			"byteLength":3624,
			"byteOffset":103900,
			"target":34963
		},
		{
			"buffer":0,
			"byteLength":36732,
			"byteOffset":107524,
			"target":34962
		},
		{
			"buffer":0,
			"byteLength":36732,
			"byteOffset":144256,
			"target":34962
		},
		{
			"buffer":0,
			"byteLength":24488,
			"byteOffset":180988,
			"target":34962
		},
		{
			"buffer":0,
			"byteLength":15528,
			"byteOffset":205476,
			"target":34963
		},
		{
			"buffer":0,
			"byteLength":65952,
			"byteOffset":221004,
			"target":34962
		},
		{
			"buffer":0,
			"byteLength":65952,
			"byteOffset":286956,
			"target":34962
		},
		{
			"buffer":0,
			"byteLength":43968,
			"byteOffset":352908,
			"target":34962
		},
		{
			"buffer":0,
			"byteLength":16488,
			"byteOffset":396876,
			"target":34963
		},
		{
			"buffer":0,
			"byteLength":136092,
			"byteOffset":413364,
			"target":34962
		},
		{
			"buffer":0,
			"byteLength":136092,
			"byteOffset":549456,
			"target":34962
		},
		{
			"buffer":0,
			"byteLength":90728,
			"byteOffset":685548,
			"target":34962
		},
		{
			"buffer":0,
			"byteLength":36024,
			"byteOffset":776276,
			"target":34963
		},
		{
			"buffer":0,
			"byteLength":24204264,
			"byteOffset":812300,
			"target":34962
		},
		{
			"buffer":0,
			"byteLength":24204264,
			"byteOffset":25016564,
			"target":34962
		},
		{
			"buffer":0,
			"byteLength":16136176,
			"byteOffset":49220828,
			"target":34962
		},
		{
			"buffer":0,
			"byteLength":18825288,
			"byteOffset":65357004,
			"target":34963
		}
	],
	"samplers":[
		{
			"magFilter":9729,
			"minFilter":9987
		}
	],
	"buffers":[
		{
			"byteLength":84182292,
			"uri":"NITAP4.bin"
		}
	]
}
