{
	"asset":{
		"generator":"Khronos glTF Blender I/O v4.0.43",
		"version":"2.0"
	},
	"scene":0,
	"scenes":[
		{
			"name":"Scene",
			"nodes":[
				0
			]
		}
	],
	"nodes":[
		{
			"mesh":0,
			"name":"nitap_logo"
		}
	],
	"animations":[
		{
			"channels":[
				{
					"sampler":0,
					"target":{
						"node":0,
						"path":"rotation"
					}
				}
			],
			"name":"nitap_logoAction",
			"samplers":[
				{
					"input":4,
					"interpolation":"LINEAR",
					"output":5
				}
			]
		}
	],
	"materials":[
		{
			"doubleSided":true,
			"name":"Material.001",
			"pbrMetallicRoughness":{
				"baseColorTexture":{
					"index":0
				},
				"metallicFactor":0.05818181484937668,
				"roughnessFactor":0.7090909481048584
			}
		}
	],
	"meshes":[
		{
			"name":"Plane",
			"primitives":[
				{
					"attributes":{
						"POSITION":0,
						"NORMAL":1,
						"TEXCOORD_0":2
					},
					"indices":3,
					"material":0
				}
			]
		}
	],
	"textures":[
		{
			"sampler":0,
			"source":0
		}
	],
	"images":[
		{
			"mimeType":"image/png",
			"name":"nit-logo",
			"uri":"nit-logo.png"
		}
	],
	"accessors":[
		{
			"bufferView":0,
			"componentType":5126,
			"count":2808,
			"max":[
				1.3097789287567139,
				0.0952889546751976,
				1.3218395709991455
			],
			"min":[
				-1.3097789287567139,
				-0.09225483983755112,
				-1.3218395709991455
			],
			"type":"VEC3"
		},
		{
			"bufferView":1,
			"componentType":5126,
			"count":2808,
			"type":"VEC3"
		},
		{
			"bufferView":2,
			"componentType":5126,
			"count":2808,
			"type":"VEC2"
		},
		{
			"bufferView":3,
			"componentType":5123,
			"count":7764,
			"type":"SCALAR"
		},
		{
			"bufferView":4,
			"componentType":5126,
			"count":500,
			"max":[
				20.833333333333332
			],
			"min":[
				0.041666666666666664
			],
			"type":"SCALAR"
		},
		{
			"bufferView":5,
			"componentType":5126,
			"count":500,
			"type":"VEC4"
		}
	],
	"bufferViews":[
		{
			"buffer":0,
			"byteLength":33696,
			"byteOffset":0,
			"target":34962
		},
		{
			"buffer":0,
			"byteLength":33696,
			"byteOffset":33696,
			"target":34962
		},
		{
			"buffer":0,
			"byteLength":22464,
			"byteOffset":67392,
			"target":34962
		},
		{
			"buffer":0,
			"byteLength":15528,
			"byteOffset":89856,
			"target":34963
		},
		{
			"buffer":0,
			"byteLength":2000,
			"byteOffset":105384
		},
		{
			"buffer":0,
			"byteLength":8000,
			"byteOffset":107384
		}
	],
	"samplers":[
		{
			"magFilter":9729,
			"minFilter":9987
		}
	],
	"buffers":[
		{
			"byteLength":115384,
			"uri":"nitlogo.bin"
		}
	]
}
